Coordinates
version=1
nRows=27
nColumns=12
inDegrees=yes

Units are S.I. units (second, meters, Newtons, ...)
Angles are in degrees

endheader
time	SC_y	SC_z	SC_x	AC_y	AC_z	AC_x	GH_y	GH_z	GH_yy	EL_x	PS_y
       0.0              -53.67          22.57          40.19          52.32          9.845           17.6          144.5           85.8          65.56          101.5          125.7
   0.03487              -53.67          22.56          40.19          52.31          9.842          17.59          144.5          85.79          65.54          101.5          125.7
   0.06973              -53.66          22.56          40.18          52.31           9.84          17.59          144.5          85.78          65.52          101.5          125.7
    0.1046              -53.66          22.56          40.18          52.31          9.836          17.59          144.4          85.77           65.5          101.5          125.7
    0.1395              -53.66          22.56          40.18          52.31          9.833          17.59          144.4          85.76          65.48          101.5          125.7
    0.1743              -53.65          22.56          40.17          52.31           9.83          17.59          144.4          85.75          65.45          101.5          125.7
    0.2092              -53.65          22.56          40.17           52.3          9.826          17.58          144.3          85.74          65.43          101.5          125.7
    0.2441              -53.64          22.55          40.16           52.3          9.822          17.58          144.3          85.73           65.4          101.5          125.7
    0.2789              -53.64          22.55          40.15           52.3          9.818          17.58          144.2          85.71          65.37          101.5          125.7
    0.3138              -53.63          22.55          40.15           52.3          9.813          17.57          144.2           85.7          65.34          101.5          125.8
    0.3487              -53.63          22.55          40.14          52.29          9.808          17.57          144.1          85.68           65.3          101.5          125.8
    0.3835              -53.62          22.54          40.13          52.29          9.803          17.57          144.0          85.67          65.26          101.5          125.8
    0.4184              -53.61          22.54          40.12          52.29          9.797          17.56          144.0          85.65          65.22          101.6          125.8
    0.4533              -53.61          22.54          40.11          52.28          9.791          17.56          143.9          85.63          65.18          101.6          125.8
    0.4881               -53.6          22.53          40.11          52.28          9.784          17.56          143.8          85.61          65.13          101.6          125.8
     0.523              -53.59          22.53          40.09          52.28          9.777          17.55          143.7          85.58          65.08          101.6          125.8
    0.5579              -53.58          22.53          40.08          52.27          9.769          17.54          143.6          85.56          65.02          101.6          125.8
    0.5927              -53.57          22.52          40.07          52.27           9.76          17.54          143.5          85.53          64.96          101.6          125.8
    0.6276              -53.56          22.52          40.06          52.26          9.751          17.53          143.4           85.5           64.9          101.6          125.8
    0.6625              -53.55          22.51          40.04          52.25           9.74          17.53          143.3          85.46          64.83          101.6          125.8
    0.6973              -53.54          22.51          40.03          52.25          9.729          17.52          143.2          85.43          64.75          101.6          125.8
    0.7322              -53.52           22.5          40.01          52.24          9.717          17.51          143.0          85.39          64.66          101.6          125.8
    0.7671              -53.51          22.49          39.99          52.23          9.703           17.5          142.8          85.34          64.56          101.6          125.8
    0.8019              -53.49          22.48          39.97          52.22          9.688          17.49          142.7          85.29          64.45          101.7          125.9
    0.8368              -53.47          22.48          39.94          52.21          9.671          17.48          142.5          85.24          64.34          101.7          125.9
    0.8717              -53.45          22.47          39.92           52.2          9.652          17.47          142.2          85.18           64.2          101.7          125.9
    0.9065              -53.42          22.45          39.89          52.19          9.631          17.45          142.0          85.11          64.05          101.7          125.9
